<svg xmlns="http://www.w3.org/2000/svg" xmlns:xlink="http://www.w3.org/1999/xlink" version="1.1" id="图层_1" x="0px" y="0px" width="26px" height="18px" viewBox="0 0 26 18" xml:space="preserve">
<style type="text/css">
	.st0{fill:#FFFFFF;}
	.st1{fill:#00A3FF;}
	.st2{fill:#00C8DC;}
	.st3{fill:#006EFF;}
</style>
<g id="XMLID_19_">
	<path id="XMLID_22_" class="st1" d="M21.5,14.7c-0.4,0.4-1.2,1-2.6,1c-0.6,0-1.3,0-1.6,0c-0.4,0-3.4,0-7,0c2.6-2.5,4.8-4.6,5-4.8   c0.2-0.2,0.7-0.7,1.2-1.1c1-0.9,1.8-1,2.5-1c1,0,1.8,0.4,2.5,1C22.9,11.1,22.9,13.4,21.5,14.7 M23.2,8.2c-1-1.1-2.5-1.8-4.1-1.8   c-1.4,0-2.6,0.5-3.7,1.3c-0.4,0.4-1,0.8-1.5,1.4c-0.4,0.4-9,8.8-9,8.8C5.4,18,6,18,6.5,18s10.5,0,10.9,0c0.8,0,1.4,0,2-0.1   c1.3-0.1,2.6-0.6,3.7-1.6C25.4,14.1,25.4,10.4,23.2,8.2z"/>
	<path id="XMLID_2_" class="st2" d="M9.2,7.6C8.1,6.8,7,6.4,5.7,6.4c-1.6,0-3.1,0.7-4.1,1.8c-2.2,2.3-2.2,5.9,0.1,8.2   c1,0.9,2,1.4,3.2,1.5l2.3-2.2c-0.4,0-0.9,0-1.3,0c-1.3-0.1-2.1-0.5-2.6-1c-1.4-1.4-1.4-3.6-0.1-5c0.7-0.7,1.5-1,2.5-1   c0.6,0,1.5,0.1,2.4,1c0.4,0.4,1.5,1.2,1.9,1.6h0.1l1.5-1.5V9.7C10.9,9,9.8,8.1,9.2,7.6"/>
	<path id="XMLID_1_" class="st3" d="M19.7,5.1c-1.1-3-4-5.1-7.3-5.1c-3.9,0-7,2.9-7.6,6.5c0.3,0,0.6-0.1,1-0.1s0.9,0.1,1.3,0.1l0,0   C7.6,4,9.8,2.2,12.4,2.2c2.2,0,4.1,1.3,5,3.2c0,0,0.1,0.1,0.1,0C18.2,5.3,19,5.1,19.7,5.1C19.7,5.2,19.7,5.2,19.7,5.1"/>
</g>
</svg>